<?xml version="1.0" encoding="utf-8"?>
<!-- Generator: Adobe Illustrator 19.1.0, SVG Export Plug-In . SVG Version: 6.00 Build 0)  -->
<!DOCTYPE svg PUBLIC "-//W3C//DTD SVG 1.1//EN" "http://www.w3.org/Graphics/SVG/1.1/DTD/svg11.dtd">
<svg version="1.1" xmlns="http://www.w3.org/2000/svg" xmlns:xlink="http://www.w3.org/1999/xlink" x="0px" y="0px"
	 viewBox="0 0 960 700" style="enable-background:new 0 0 960 700;" xml:space="preserve">
<style type="text/css">
	.st0{fill:#A4D4CF;}
	.st1{fill-rule:evenodd;clip-rule:evenodd;fill:#CC9873;}
	.st2{fill:#8C6239;}
	.st3{fill:#FFF45F;}
	.st4{fill:#985752;}
	.st5{fill:#FED9F0;}
	.st6{fill:#FC69C3;}
	.st7{fill:#FFC85A;}
	.st8{fill:#CC9873;}
	.st9{fill:#E3F2EB;}
	.st10{fill:#29ABE2;}
	.st11{fill:#E0128D;}
	.st12{fill:#BD77B2;}
	.st13{fill:#801D7F;}
	.st14{fill-rule:evenodd;clip-rule:evenodd;fill:#E3F2EB;}
	.st15{fill:#488C88;}
	.st16{fill:#5E1960;}
	.st17{fill:#A0BCB8;}
	.st18{fill:#327F76;}
	.st19{fill:#5CA099;}
	.st20{fill:#236B67;}
	.st21{fill-rule:evenodd;clip-rule:evenodd;fill:#236B67;}
	.st22{fill-rule:evenodd;clip-rule:evenodd;fill:#72BF44;}
	.st23{fill:#AEA518;}
	.st24{fill-rule:evenodd;clip-rule:evenodd;fill:#CCE1E6;}
	.st25{fill-rule:evenodd;clip-rule:evenodd;fill:#FFFFFF;}
	.st26{fill-rule:evenodd;clip-rule:evenodd;fill:#73BE44;}
	.st27{fill-rule:evenodd;clip-rule:evenodd;fill:#482E1F;}
	.st28{fill:#FFFFFF;}
	.st29{fill-rule:evenodd;clip-rule:evenodd;fill:#C9AD01;}
	.st30{fill:#C9AD01;}
	.st31{fill-rule:evenodd;clip-rule:evenodd;fill:#00A59B;}
	.st32{fill:#404041;}
	.st33{fill:#FFEB00;}
	.st34{fill:#FC7A38;}
	.st35{fill:#B1B4B6;}
	.st36{fill:#918A11;}
	.st37{fill-rule:evenodd;clip-rule:evenodd;fill:#918A11;}
	.st38{fill-rule:evenodd;clip-rule:evenodd;fill:#D94A35;}
	.st39{fill-rule:evenodd;clip-rule:evenodd;fill:#F15A24;}
	.st40{fill-rule:evenodd;clip-rule:evenodd;fill:#F9744B;}
	.st41{fill:#F9744B;}
	.st42{fill:#D94A35;}
	.st43{fill-rule:evenodd;clip-rule:evenodd;fill:#E1F4FD;}
	.st44{fill-rule:evenodd;clip-rule:evenodd;fill:#F06992;}
</style>
<g id="background">
	<rect class="st0" width="960" height="700"/>
</g>
<g opacity="0.35" clip-path="url(#SVGID_4_)">
	<g>
		<defs>
			<rect id="SVGID_9_" x="-10.25" y="235.364" width="1170" height="63.751"/>
		</defs>
		<clipPath id="SVGID_10_">
			<use xlink:href="#SVGID_9_"  overflow="visible"/>
		</clipPath>
		<path clip-path="url(#SVGID_10_)" fill="#88C4CE" d="M434,247.566c-75.426-25.643-148.751-6.368-218.454,16.523
			C136.657,289.996,75.25,250.506-0.25,241.54v27.446c32,3.187,62.378,9.901,92.492,17.559
			c51.862,13.183,106.666,17.931,159.872,4.729c29.271-7.262,57.021-20.49,87.791-24.554c5.629-0.742,28.448-3.452,62.396,0.245
			c38.91,3.333,72.449,16.383,109.449,22.823V267.59C484.75,263.348,457.518,255.562,434,247.566"/>
	</g>
</g>
<g xmlns="http://www.w3.org/2000/svg" opacity="0.35" clip-path="url(#SVGID_4_)">
	<g>
		<defs>
			<rect id="SVGID_7_" x="0.125" y="374.003" width="1170" height="76.183"/>
		</defs>
		<clipPath id="SVGID_8_">
			<use xlink:href="#SVGID_7_" xmlns:xlink="http://www.w3.org/1999/xlink" overflow="visible"/>
		</clipPath>
		<path clip-path="url(#SVGID_8_)" fill="#88C4CE" d="M137.491,388.586c90.154-30.646,177.633-7.609,260.946,19.748      c41.232,13.543,77.157,12.113,113.562,5.345v28.702c-52.08,9.848-104.522,11.484-157.08-1.556      c-34.988-8.679-68.095-24.491-104.87-29.345c-6.729-0.888-50.274-3.484-74.703,0.291      c-57.485,4.924-113.167,28.507-171.169,32.062c-1.338,0.083-2.708,0.094-4.053,0.156v-26.838c0.014,0,8.014-0.91,8.026-0.91      C51.457,414.453,98.763,401.754,137.491,388.586"/>
	</g>
</g>
<g xmlns="http://www.w3.org/2000/svg" opacity="0.35" clip-path="url(#SVGID_4_)">
	<g>
		<defs>
			<rect id="SVGID_9_" x="20.25" y="235.364" width="1170" height="63.751"/>
		</defs>
		<clipPath id="SVGID_10_">
			<use xlink:href="#SVGID_9_" xmlns:xlink="http://www.w3.org/1999/xlink" overflow="visible"/>
		</clipPath>
		<path clip-path="url(#SVGID_10_)" fill="#88C4CE" d="M434,247.566c-75.426-25.643-148.751-6.368-218.454,16.523      C136.657,289.996,75.25,250.506-0.25,241.54v27.446c32,3.187,62.378,9.901,92.492,17.559      c51.862,13.183,106.666,17.931,159.872,4.729c29.271-7.262,57.021-20.49,87.791-24.554c5.629-0.742,28.448-3.452,62.396,0.245      c38.91,3.333,72.449,16.383,109.449,22.823V267.59C484.75,263.348,457.518,255.562,434,247.566"/>
	</g>
</g>
<g id="ice_cream_octopus">
	<g>
		<g id="butterscotch_cone">
			<path class="st1" d="M856.4,523.6c2.6-2,26.6-2,29.4,0c-0.3,1.4-1.8,9.7-2.6,10.4c-0.1,1.3-0.7,2-0.6,3.1
				c-0.8,0.3-1.5,5.3-2.3,6.1c-0.4,3.2-3.7,11-3.7,12.5c-1.3,3.5-2.4,7.6-4.4,11c-0.5,0.2-1.5,0.1-2,0c-0.1-0.6-1.9-3.9-2.3-4.7
				c-0.9-2-1-4.3-2.1-6.2c-0.4-3-1.6-4.7-2.5-7.3c-0.1-1.8-1.2-5.7-1.8-6.1c0-1.1-2.5-7.4-2.4-8.3c-0.4-0.5-0.8-4.1-1.5-4.9
				C857.7,528.1,856.4,524.7,856.4,523.6z"/>
			<path class="st2" d="M892.6,503.9c-1.7,0-5.7-2.2-6.8-2c-1,0.2-1.6,2-2.3,2.6c0.1,1.2-2,5-2.8,6.4c-1.2,0.6-2.4,2-4,2.4
				c-1.9,0.5-4,0.3-5.9-0.1c-0.9-0.7-3.8-4.9-4.1-5.6c-0.6-2.6-0.4-5.9-1.4-7.8c-0.5-1.2-2.7-1.6-3.8-0.9c-1.1,0.8-2.7,5.5-3,5.9
				c-1.6,2.1-4.2,2.8-8.1,1.9c-1.1-0.7-2.1-1-3.3-1.6c-0.7-1-2.2-4.3-2.4-5.1c0,0.3,0,0.7-0.1,1c-0.3,7.5,2.1,16.3,8.1,21.3
				c2.8,2.3,4.9,4.1,8.3,5.3c3.3,1.2,6.3,1.6,9.9,1.6c6.3,0,13.7-1,18.4-5.7c3.9-3.9,7.8-9.4,8.7-15c0.5-2.8,0.6-6.1,0.3-9.4
				C898,500.2,893.3,503.6,892.6,503.9z"/>
			<path class="st3" d="M850.2,507.3c6.3,2.2,9.2-2.6,11-6.7c0.8-1.7,3.3-1.4,3.8,0.4c1,1.9,0,7.9,3.3,11c2.3,2.1,4.9,3.4,8.8,2.2
				c7.5-2.3,6.5-10.2,8.1-11.3c2.3-1.5,2.8,4.3,9.1,1.3c2-0.9,3.8-2.9,3.9-5.2c-0.4-4.3-1.6-8.5-4.1-11.6c-2.2-2.8-5.8-4.9-8.9-6.7
				c-1.6-1-3.6-1-5.3-1.6c-1.2-0.4-2.2-1-3.5-1.1c-7.8-0.6-16.9,0.4-23.3,5.3c-5.3,4.1-8,10.1-8.5,16.6
				C844.9,500.7,844,505.1,850.2,507.3z"/>
		</g>
		<g id="chocolate_cone">
			<path class="st1" d="M105.3,387.8c2.6-2,26.6-2,29.4,0c-0.3,1.4-1.8,9.7-2.6,10.4c-0.1,1.3-0.7,2-0.6,3.1
				c-0.8,0.3-1.5,5.3-2.3,6.1c-0.4,3.2-3.7,11-3.7,12.5c-1.3,3.5-2.4,7.6-4.4,11c-0.5,0.1-1.5,0.1-2,0c-0.1-0.6-1.9-3.9-2.3-4.7
				c-0.9-2-1-4.3-2.1-6.2c-0.4-3-1.6-4.7-2.5-7.3c-0.1-1.8-1.2-5.7-1.8-6.1c0-1.1-2.5-7.4-2.4-8.3c-0.4-0.5-0.8-4.1-1.5-4.9
				C106.6,392.3,105.3,389,105.3,387.8z"/>
			<path class="st3" d="M141.5,368.1c-1.7,0-5.7-2.2-6.8-2c-1,0.2-1.6,2-2.3,2.6c0.1,1.2-2,5-2.8,6.4c-1.2,0.6-2.4,2-4,2.4
				c-1.9,0.5-4,0.3-5.9-0.1c-0.9-0.7-3.8-4.9-4.1-5.6c-0.6-2.6-0.4-5.9-1.4-7.8c-0.5-1.2-2.7-1.6-3.8-0.9c-1.1,0.8-2.7,5.5-3,5.9
				c-1.6,2.1-4.2,2.8-8.1,1.9c-1.1-0.7-2.1-1-3.3-1.6c-0.7-1-2.2-4.3-2.4-5.1c0,0.3,0,0.6-0.1,1c-0.3,7.5,2.1,16.3,8.1,21.3
				c2.8,2.3,4.9,4.1,8.3,5.3c3.3,1.2,6.3,1.6,9.9,1.6c6.3,0,13.7-1,18.4-5.7c3.9-3.9,7.8-9.4,8.7-15c0.5-2.8,0.6-6.1,0.3-9.4
				C146.9,364.5,142.1,367.9,141.5,368.1z"/>
			<path class="st4" d="M99.1,371.6c6.3,2.2,9.2-2.6,11-6.7c0.8-1.7,3.3-1.4,3.8,0.4c1,1.9,0,7.9,3.3,11c2.3,2.1,4.9,3.4,8.8,2.2
				c7.5-2.3,6.5-10.2,8.1-11.3c2.3-1.5,2.8,4.3,9.1,1.3c2-0.9,3.8-2.9,3.9-5.2c-0.4-4.3-1.6-8.5-4.1-11.6c-2.2-2.8-5.8-4.9-8.9-6.7
				c-1.6-1-3.6-1-5.3-1.6c-1.2-0.4-2.2-1-3.5-1.1c-7.8-0.6-16.9,0.4-23.3,5.3c-5.3,4.1-8,10.1-8.5,16.6
				C93.8,365,92.8,369.3,99.1,371.6z"/>
		</g>
		<g id="strawberry_cone_1_">
			<path class="st1" d="M751.3,265.7c2.6-2,26.6-2,29.4,0c-0.3,1.4-1.8,9.7-2.6,10.4c-0.1,1.3-0.7,2-0.6,3.1
				c-0.8,0.3-1.5,5.3-2.3,6.1c-0.4,3.2-3.7,11-3.7,12.5c-1.3,3.5-2.4,7.6-4.4,11c-0.5,0.1-1.5,0.1-2,0c-0.1-0.6-1.9-3.9-2.3-4.7
				c-0.9-2-1-4.3-2.1-6.2c-0.4-3-1.6-4.7-2.5-7.3c-0.1-1.8-1.2-5.7-1.8-6.1c0-1.1-2.5-7.4-2.4-8.3c-0.4-0.5-0.8-4.1-1.5-4.9
				C752.6,270.2,751.3,266.9,751.3,265.7z"/>
			<path class="st5" d="M787.5,246c-1.7,0-5.7-2.2-6.8-2c-1,0.2-1.6,2-2.3,2.6c0.1,1.2-2,5-2.8,6.4c-1.2,0.6-2.4,2-4,2.4
				c-1.9,0.5-4,0.3-5.9-0.1c-0.9-0.7-3.8-4.9-4.1-5.6c-0.6-2.6-0.4-5.9-1.4-7.8c-0.5-1.2-2.7-1.6-3.8-0.9c-1.1,0.8-2.7,5.5-3,5.9
				c-1.6,2.1-4.2,2.8-8.1,1.9c-1.1-0.7-2.1-1-3.3-1.6c-0.7-1-2.2-4.3-2.4-5.1c0,0.3,0,0.7-0.1,1c-0.3,7.5,2.1,16.3,8.1,21.3
				c2.8,2.3,4.9,4.1,8.3,5.3c3.3,1.2,6.3,1.6,9.9,1.6c6.3,0,13.7-1,18.4-5.7c3.9-3.9,7.8-9.4,8.7-15c0.5-2.8,0.6-6.1,0.3-9.4
				C793,242.3,788.2,245.8,787.5,246z"/>
			<path class="st6" d="M745.2,249.4c6.3,2.2,9.2-2.6,11-6.7c0.8-1.7,3.3-1.4,3.8,0.4c1,1.9,0,7.9,3.3,11c2.3,2.1,4.9,3.4,8.8,2.2
				c7.5-2.3,6.5-10.2,8.1-11.3c2.3-1.5,2.8,4.3,9.1,1.3c2-0.9,3.8-2.9,3.9-5.2c-0.4-4.3-1.6-8.5-4.1-11.6c-2.2-2.8-5.8-4.9-8.9-6.7
				c-1.6-1-3.6-1-5.3-1.6c-1.2-0.4-2.2-1-3.5-1.1c-7.8-0.6-16.9,0.4-23.3,5.3c-5.3,4.1-8,10.1-8.5,16.6
				C739.9,242.8,738.9,247.2,745.2,249.4z"/>
		</g>
		<g id="softee_choc">
			<path id="cone_2_" class="st7" d="M842.6,337h-41.1c0,0-1.2,19,0,21.3c0.8,0.7,3,1,4.9,1.3c0.5,5.8,1.2,18.3,2,20.8
				c0.8,2.5,25.4,3.3,26.3,0.4c0.8-2.8,2-16.5,2.7-21.5c1.9-0.3,4.5-0.1,5.3-1C843.7,356.1,842.6,337,842.6,337z"/>
			<path id="top_2_" class="st4" d="M831.5,313c8.1-12.3-11.6-18.9-18.5-10.8c0.4,3.9,12.7,3.5,3.1,10c-7.7,2.7-20,6.9-10.8,17.7
				c-13.9,0-17.3,11.3-6.9,19.3c8.1,6.2,37.1,6.7,46.2,1.9c10.4-5.4,5.8-21.6-4.2-19.3C846.5,325.8,844.2,316.1,831.5,313z"/>
		</g>
		<g id="softee_strawberry">
			<path id="cone_1_" class="st7" d="M105.8,454H64.7c0,0-1.2,18.8,0,21.1c0.8,0.7,3,0.9,4.9,1.2c0.5,5.8,1.2,18.3,2,20.7
				c0.8,2.5,25.4,3.3,26.3,0.4c0.8-2.8,2-16.5,2.7-21.5c1.9-0.3,4.5,0,5.3-0.8C106.9,472.9,105.8,454,105.8,454z"/>
			<path id="top_1_" class="st5" d="M94.7,429.7c8.1-12.3-11.6-18.9-18.5-10.8c0.4,3.9,12.7,3.5,3.1,10c-7.7,2.7-20,6.9-10.8,17.7
				c-13.9,0-17.3,11.3-6.9,19.3c8.1,6.2,37.1,6.7,46.2,1.9c10.4-5.4,5.8-21.6-4.2-19.3C109.8,442.4,107.4,432.8,94.7,429.7z"/>
		</g>
		<g id="softee_lemon">
			<path id="cone" class="st7" d="M242.9,244h-41.1c0,0-1.2,18.4,0,20.7c0.8,0.7,3,0.7,4.9,1c0.5,5.8,1.2,18.2,2,20.6
				c0.8,2.5,25.4,3.2,26.3,0.3c0.8-2.8,2-16.5,2.7-21.5c1.9-0.3,4.5,0.4,5.3-0.4C244.1,262.6,242.9,244,242.9,244z"/>
			<path id="top" class="st3" d="M231.9,218.9c8.1-12.3-11.6-18.9-18.5-10.8c0.4,3.9,12.7,3.5,3.1,10c-7.7,2.7-20,6.9-10.8,17.7
				c-13.9,0-17.3,11.3-6.9,19.3c8.1,6.2,37.1,6.7,46.2,1.9c10.4-5.4,5.8-21.6-4.2-19.3C246.9,231.6,244.6,222,231.9,218.9z"/>
		</g>
		<g id="rocket_pop_02">
			<path class="st8" d="M860.6,417.2c0.3,3.1-1.4,39.3-1,42.8c0.3,3.5,2.1,7.3,5.9,7c3.8-0.4,4.5-3.5,4.5-8c0-4.5,0.3-40,0.3-42.1
				L860.6,417.2z"/>
			<path class="st9" d="M847.3,381.1c1-5.7,4.4-8,7.7-9.1c3.9-1.3,19.9-0.5,23.4,0.6c2.9,1,5,3.6,5.9,8.8c0.9,5.2,2.3,45.2,2.3,50.4
				c0,4.9-1.3,7.2-4.9,8.5c-4.5,1.7-29.6,0.6-34.2-1.3c-2.2-0.9-4.2-3.6-4.2-6.5C843.3,425.7,846.4,386.3,847.3,381.1z"/>
			<path class="st10" d="M844.1,418.2c-0.5,6.6-0.8,12.1-0.8,14.3c0,2.9,2.1,5.6,4.2,6.5c4.6,2,29.6,3,34.2,1.3
				c3.6-1.3,4.9-3.6,4.9-8.5c0-1.6-0.1-6.6-0.4-12.9C878.2,420.6,855,419.8,844.1,418.2z"/>
			<path class="st11" d="M855,372c-3.3,1.1-6.7,3.4-7.7,9.1c-0.3,1.7-0.8,6.9-1.4,13.4c9.3-0.2,30.3,0.6,39.3,1.2
				c-0.3-6.9-0.7-12.6-1-14.3c-0.9-5.2-2.9-7.8-5.9-8.8C874.9,371.4,858.9,370.7,855,372z"/>
		</g>
		<g id="rocket_pop_01">
			<path class="st8" d="M150.4,286.2c0.3,3.1-1.4,39.3-1,42.8c0.3,3.5,2.1,7.3,5.9,7c3.8-0.4,4.5-3.5,4.5-8c0-4.5,0.3-40,0.3-42.1
				L150.4,286.2z"/>
			<path class="st9" d="M137.1,250.1c1-5.7,4.4-8,7.7-9.1c3.9-1.3,19.9-0.5,23.4,0.6c2.9,1,5,3.6,5.9,8.8c0.9,5.2,2.3,45.2,2.3,50.4
				c0,4.9-1.3,7.2-4.9,8.5c-4.5,1.7-29.6,0.6-34.2-1.3c-2.2-0.9-4.2-3.6-4.2-6.5C133.1,294.7,136.3,255.3,137.1,250.1z"/>
			<path class="st10" d="M133.9,287.2c-0.5,6.6-0.8,12.1-0.8,14.3c0,2.9,2.1,5.6,4.2,6.5c4.6,2,29.6,3,34.2,1.3
				c3.6-1.3,4.9-3.6,4.9-8.5c0-1.6-0.1-6.6-0.4-12.9C168,289.6,144.8,288.9,133.9,287.2z"/>
			<path class="st11" d="M144.8,241c-3.3,1.1-6.7,3.4-7.7,9.1c-0.3,1.7-0.8,6.9-1.4,13.4c9.3-0.2,30.3,0.6,39.3,1.2
				c-0.3-6.9-0.7-12.6-1-14.3c-0.9-5.2-2.9-7.8-5.9-8.8C164.8,240.5,148.7,239.7,144.8,241z"/>
		</g>
		<g id="arms_R">
			<path id="_x34__1_" class="st12" d="M666.5,497.7c21.8,10.2,31.7,16,58.3,20.8c18.1,3.2,36-3.7,52.2-4.4
				c21.1-0.9,37.1,14.6,61.4,18.4c13,2,29.9-1.4,42.3-3.4c4.1-0.7,1.4,7.5-4.8,10.2c-6.4,2.8-22.5,7.7-38.2,8.2
				c-21.8,0.7-40.9-10.2-58.7-12.3c-19.3-2.2-21.9,4.7-47.1,6.1c-12.1,0.7-47.1-7.5-62.8-15.7L666.5,497.7z"/>
			<path id="_x33__1_" class="st12" d="M648.8,471.8c40.3,14.3,73.6-15.5,101.7-16.7c16.4-0.7,42.6,11.6,70.8,10.2
				c7-0.3,34.3-7.8,41.8-15.3c7.9-7.9,13.4-5.1,8.4,2c-11.8,17.1-29.7,25.9-51.4,30c-28.2,5.3-41.6-4.8-64.8-4.8
				c-26.9,0-52.5,27.3-103,14.3L648.8,471.8z"/>
			<path id="_x32__2_" class="st12" d="M603.3,441.7c9.2-1,17.6-1.5,49.9-11.3c33.8-10.2,35.2-31.6,61.4-48.1
				c13-8.2,29-13.6,42-14.3c16.2-0.9,47.1,7.5,73.2-5.5c5.6-2.8,8.6,3.6,2,8.2c-38.4,26.6-48.6,15.7-69.1,15.7
				c-10.4,0-32.7,6.1-40.9,13.6c-15.8,14.5-26.8,38.2-56.6,45.7c-18.5,4.6-33.2,9.2-48.6,10.2L603.3,441.7z"/>
			<path id="_x31__2_" class="st12" d="M559.4,419.2c13-3.8,63.7-12.9,74.4-34.8c13.6-28,23.5-55.6,43-75
				c19.4-19.4,56.4-35.2,91.4-29.3c16.4,2.7,13.4,15.3,1.4,13c-13.7-2.7-50.5,6.5-66.2,17.1c-37.5,25.2-37.5,67.5-50.5,84.6
				c-21.5,28.2-60.7,34.1-83.2,38.2L559.4,419.2z"/>
		</g>
		<g id="arms_L">
			<path id="_x34_" class="st12" d="M276.6,534.9c-9.2-10.2-26.6-33.8-44-33.8s-37.5,11.9-53.2,11.3c-21.1-0.9-37.2-17.4-48.1-23.5
				C116,480.2,85.9,477.9,75,484c-6.3,3.5,5.1,7.2,10.2,6.1c6.8-1.4,27.6,0.7,35.8,7.8s29,33.1,52.9,35.8
				c19.3,2.2,46.4-16.4,59.7-14.3c13.3,2,26.6,20.5,32.7,29.7L276.6,534.9z"/>
			<path id="_x33_" class="st12" d="M313.5,489.8c-5.1-13.3-16.4-31.7-25.6-40.9S257.5,411,229.6,409c-13.6-1-31.4,9.2-59.4,5.1
				c-12.3-1.8-54.3-14.2-60.4-15.3c-10.9-2-14.3,3.1-6.1,6.1s46.4,25.8,66.9,27.3c28.7,2,45.7-7.7,60-3.8
				c25.9,7.2,57.3,45,61.4,66.5L313.5,489.8z"/>
			<path id="_x32__1_" class="st12" d="M380,445.8c-9.2-1-39.9-13.3-67.5-32.7c-15-10.5-16.8-41.9-37.9-57.3
				c-22.9-16.7-49.5-13.6-71.6-16.4c-16.1-2-47.4-22.9-53.6-23.9c-6.1-1-8.2,3.1-2,8.2s31.5,25.7,50.5,31c30,8.5,45.1,3,64.1,17.4
				c17.1,13,15,44.3,38.9,61.4c15.5,11.1,50.5,25.6,65.8,26.6L380,445.8z"/>
			<path id="_x31__1_" class="st12" d="M425,413.1c-13-3.8-34.3-5.5-51.2-23.2c-14-14.7-50.1-66.9-69.6-86.3
				c-19.4-19.4-59.4-34.5-94.8-35.8c-12.3-0.5-16.7,5.1-3.4,9.2c13.3,4.1,51.2,12.1,66.2,23.5c25.6,19.4,50.6,53.2,62.8,74.4
				c17.7,30.7,47.1,59.7,69.6,63.8L425,413.1z"/>
		</g>
		<g id="octo_head_1">
			<path class="st12" d="M481.3,409c-1.8-12.5,9.5-38.3-4.1-56.3c-19.4-25.6-61.4-33.8-66.5-90.1c-3.3-35.9,26.6-89,88-89
				s88,45,83.9,89c-4.8,52.1-47.1,72.7-62.4,89c-14.2,15.1-10.2,44-10.2,61.4C509.9,413.1,482.3,416.2,481.3,409z"/>
			<path class="st13" d="M498.7,173.6c-28.6,0-50.3,11.5-65.1,27.4c2.5,6.1,7.2,12.6,12.2,12.1c8.2-0.7,11.3-6.8,13.6-11.6
				c2.4,4.1,5.5,11.9,14.3,11.9c8.9,0,10.6-10.6,13.3-14.7c1.7,4.8,8.2,13.6,15,13.3c8.2-0.4,10.9-9.9,13.3-14.7
				c2.4,5.1,7.2,15.3,14.7,14.7c10.3-0.9,11.9-9.9,13-14.7c3.1,6.1,7,13.3,12.6,13.6c5.5,0.3,8.8-3.3,11.6-6.8
				C553.6,186.1,531,173.6,498.7,173.6z"/>
			<g id="hat_2_">
				<path class="st14" d="M499.5,180.1c-9,0.1-30.4-0.9-32.9-1c-1.4-0.1-2.4-1-2-2.6c0.2-1,1.1-5.1,1.7-7.6c0.4-2.1,1-4.2,1.5-6.3
					c0.4-2.3,0.7-4.6,1.1-6.8c0.4-2.1,2.5-10.3,3.1-13.2c0.5-2.8,2.2-3.1,3.8-3c1.6,0.2,15.8-0.4,23.1-0.4c7.3,0,23.8,0.5,25,0.4
					c1.2-0.1,2,1.4,2.4,3.4c0.4,2,1.6,6.7,2.3,10.1c0.4,1.7,0.6,3.4,1,5.1c0.4,2.1,3.9,16.9,3.9,17.7c0.2,1.9-0.3,2.8-1.7,2.9
					C530.4,179,511.3,179.9,499.5,180.1z"/>
				<path class="st15" d="M527.7,150.3c-0.1-0.5-20.5-0.1-22.4,0.3c-2,0.4-6,3.3-6.5,7c-0.5-3.7-4.4-6.6-6.5-7
					c-1.9-0.4-22.2-0.8-22.4-0.3c-0.3,1.1-1,3.3-1.3,5.2c5.3,0,10.7-0.1,15.9,0c2.9,0.1,5.7,0.1,8.1,2.2c1.1,0.9,6,9.8,6.1,9.8
					s4.9-8.9,6-9.8c2.4-2.1,5.2-2.2,8.1-2.2c5.3-0.1,10.7,0,15.9,0C528.7,153.6,528,151.4,527.7,150.3z"/>
			</g>
			<g id="mouth_2_">
				<path class="st16" d="M469.7,283.3c-0.9-2.1,1.9-1.3,3.7-0.9c2.6,0.7,15.6,5,24.9,5.1c10.9,0.2,22.9-4.4,24.6-5.1
					c1.7-0.7,2.8-0.5,2.2,1c-1.2,3.1-11.6,18.8-26.9,18.3C482.5,301.2,471.1,286.5,469.7,283.3z"/>
				<path class="st9" d="M484.4,285.4c-0.4,5.6-1.2,11.5,0,15.1c1.6,5.1,10.1,7.8,13.3,1.8c2.3,5.9,11.7,3.8,12.5-1.8
					c0.5-3.5,0.9-10-0.1-14.2C502.5,287.9,492.7,287.5,484.4,285.4z"/>
				<path class="st17" d="M499.3,287.2c0,0,0,6.4-0.1,8.4c0,2-0.1,3.8-0.4,5.6c-0.2,1.7-0.7,2.5-1.2,2.4c-0.3-0.1-0.9-0.7-1.1-2.4
					c-0.2-1.7-0.2-3.5-0.2-5.6c0-2,0.2-8.1,0.2-8.5C497,287.2,498.7,287.3,499.3,287.2z"/>
			</g>
			<g id="eyes">
				<path class="st16" d="M533.8,256.5c0,3.4,3.1,6.1,6.7,6.1c3.7,0,6.7-2.8,6.7-6.1c0-3.4-2-6.8-6.5-6.8
					C536.3,249.7,533.8,253.1,533.8,256.5z"/>
				<path class="st16" d="M461.2,256.5c0,3.4-3.1,6.1-6.7,6.1c-3.7,0-6.7-2.8-6.7-6.1c0-3.4,2.5-6.2,6.1-6.8
					C458.3,249,461.2,253.1,461.2,256.5z"/>
			</g>
		</g>
		<g id="rock">
			<path id="coral_1_" class="st15" d="M248,572.7c-4.1-7.2,6.4-42.2,9.2-51.2c6.1-19.4,14.9-26,25.6-35.8
				c12.3-11.3,27.6-19.4,35.8-23.5c8.2-4.1,24.4-9.5,42-23.5c20.5-16.4,24.6-39.9,37.9-51.2c14.9-12.6,45.7-18.4,58.3-18.4
				c21.5,0,46.2,21.6,57.3,24.6c19.4,5.1,30.7-1.2,46,2c14.3,3.1,24.3,17.1,37.9,22.5c15.3,6.1,34.5-0.4,55.3,7.2
				c11.3,4.1,23.5,24.6,24.6,38.9c1,14.3,2,30.7,8.2,42c6.1,11.3,15.3,23.5,25.6,34.8s18.5,33.3,14.3,33.8c-9.2,1-24.6-5.1-39.9-4.1
				s-52.2,12.8-71.6,14.3c-38.9,3.1-108.7-19.3-133-15.3c-37.9,6.1-70.6,25.6-124.8,24.6C332.8,593.8,252.1,579.9,248,572.7z"/>
			<g id="carving">
				<g id="softee_mint_1_">
					<path id="cone_3_" class="st18" d="M509.6,513c-14.1-1-43.2-17.4-53.3-26.4c-2.2,3.2-6.4,9.2-6.3,13c0.6,1.4,3.4,3.1,5.6,4.8
						c-3.1,7.8-10.2,24.5-10.7,28.2c-0.5,3.7,30.9,20.5,33.8,17.3c2.9-3.2,13.2-20.1,17.3-26.2c2.7,0.8,5.8,2.9,7.4,2.3
						C506.1,523.9,508.7,516.4,509.6,513z"/>
					<path id="top_3_" class="st18" d="M525.2,448c18.4-10.8-2.9-31.9-17.1-25.9c-2,5.2,14.3,12.7-2.4,15
						c-11.7-1.4-30.4-3.8-25.4,16.1c-18-8.9-29.8,3.6-21.4,20.6c6.5,13.2,43.8,32.4,58.8,32.2c17-0.3,21.3-24.3,6.9-27.7
						C536.6,474.1,539.7,460.1,525.2,448z"/>
				</g>
				<g>
					<path class="st19" d="M532,437.7c0,0.3,0,0.6,0.1,0.8c0,0.3,0,0.6,0,0.9c0,0.3-0.1,0.6-0.1,0.9c0,0.3-0.1,0.6-0.2,0.9
						c-0.1,0.3-0.1,0.6-0.3,0.9c-0.1,0.3-0.2,0.6-0.4,0.8c-0.3,0.5-0.6,1.1-0.9,1.6c-0.4,0.5-0.8,0.9-1.2,1.3
						c-0.4,0.4-0.9,0.8-1.4,1.1c-0.5,0.3-1,0.6-1.6,0.9c-0.5,0.2-1.1,0.4-1.6,0.6l0.3-1.4l0,0c0.6,0.5,1.2,1,1.8,1.5
						c0.6,0.5,1.2,1.1,1.7,1.7c1.1,1.2,2.2,2.4,3.1,3.8c1,1.3,1.8,2.8,2.4,4.4c0.3,0.8,0.6,1.6,0.8,2.5c0.2,0.8,0.3,1.7,0.4,2.6
						c0,0.8,0,1.7,0,2.5c0,0.8-0.1,1.7-0.3,2.5c-0.3,1.7-0.8,3.3-1.7,4.9c-0.8,1.5-2.1,2.7-3.6,3.6c-1.5,0.9-3.2,1.2-4.9,1.2h0
						l0.3-0.8c1.5,0.9,2.9,2.1,4.2,3.3c1.3,1.3,2.5,2.8,3.3,4.6c0.8,1.8,1.3,3.9,1.2,5.9c-0.1,2-0.8,4-1.6,5.7
						c-0.4,0.9-0.9,1.7-1.5,2.4c-0.3,0.4-0.5,0.8-0.8,1.1l-0.4,0.5l-0.1,0.1l-0.2,0.2l-0.1,0.1l-0.2,0.2c-0.2,0.2-0.5,0.5-0.8,0.7
						l-0.7,0.5c-0.5,0.3-0.9,0.5-1.4,0.7c-0.9,0.4-1.9,0.7-2.8,0.9c-1.8,0.5-3.7,0.7-5.5,0.7c-1.8,0.1-3.6,0-5.4-0.1
						c-3.5-0.3-7-1-10.4-2c-1.7-0.5-3.3-1-5-1.6c-1.6-0.6-3.2-1.3-4.8-2c-1.6-0.7-3.1-1.5-4.6-2.3c-1.5-0.8-3-1.7-4.5-2.6
						c-1.5-0.9-2.9-1.8-4.3-2.8c-1.4-1-2.8-2-4.2-3c-0.1-0.1-0.2-0.3-0.1-0.4c0.1-0.1,0.2-0.1,0.4-0.1l0,0c1.5,0.8,3,1.6,4.5,2.3
						c0.8,0.4,1.5,0.8,2.3,1.1c0.8,0.4,1.5,0.7,2.3,1.1c1.5,0.7,3.1,1.4,4.6,2c1.6,0.6,3.1,1.2,4.7,1.8c1.6,0.5,3.2,1.1,4.8,1.5
						c1.6,0.5,3.2,0.9,4.8,1.2c3.2,0.7,6.5,1.2,9.7,1.4c3.2,0.1,6.5,0,9.4-0.8c0.7-0.2,1.4-0.4,2-0.7c0.3-0.1,0.6-0.3,0.9-0.4
						l0.4-0.2c0.1-0.1,0.1-0.1,0.2-0.1l0.2-0.2l0.1-0.1l0,0c-0.2,0.2-0.1,0.1-0.1,0.1l0,0l0-0.1l0.4-0.5c0.2-0.3,0.5-0.6,0.7-0.9
						c0.4-0.6,0.9-1.3,1.2-1.9c0.7-1.3,1.2-2.6,1.4-3.9c0.2-1.3,0.1-2.7-0.3-4.1c-0.4-1.4-1.1-2.8-1.9-4.2c-0.9-1.4-1.9-2.7-2.9-4
						l-0.1-0.2c-0.2-0.2-0.1-0.7,0.1-0.9c0.1-0.1,0.2-0.3,0.3-0.3h0c1.4,0,2.7-1,3.7-1.9c1-0.9,1.8-2,2.3-3.3c0.5-1.3,0.9-2.6,1-4
						c0.1-0.7,0.1-1.4,0.2-2.1c0-0.7,0-1.4-0.1-2.2c-0.1-0.7-0.1-1.3-0.3-2c-0.2-0.7-0.4-1.3-0.6-2c-0.5-1.3-1.2-2.6-1.9-3.9
						c-1.5-2.6-3.3-5-5.2-7.5l0,0c-0.3-0.3-0.4-0.8-0.1-1.2c0.1-0.1,0.2-0.1,0.3-0.2l0.1-0.1c0.5-0.2,1-0.4,1.4-0.7
						c0.5-0.2,0.9-0.5,1.3-0.8c0.4-0.3,0.8-0.6,1.2-0.9c0.4-0.3,0.8-0.7,1.1-1c0.3-0.4,0.7-0.8,0.9-1.2c0.3-0.4,0.5-0.9,0.7-1.3
						c0.1-0.2,0.2-0.5,0.3-0.7c0.1-0.2,0.2-0.5,0.3-0.7c0.1-0.3,0.2-0.5,0.2-0.8c0.1-0.3,0.1-0.5,0.2-0.8c0-0.2,0.2-0.3,0.4-0.2
						C531.9,437.5,532,437.6,532,437.7z"/>
				</g>
				<g>
					<path class="st20" d="M528.8,430.4c-1.6-2-3.7-3.5-5.9-4.7c-2.2-1.2-4.6-2.1-7-2.7c-1.2-0.3-2.4-0.4-3.6-0.4
						c-1.2,0-2.3,0.4-2.5,1c-0.1,0.2-0.1,0.2-0.1,0.2c0,0.1,0,0.1,0,0.2c0,0.1,0.1,0.3,0.1,0.5c0.2,0.4,0.5,0.9,0.9,1.3
						c0.7,0.9,1.7,1.8,2.5,3c0.4,0.6,0.8,1.2,1.2,1.9c0.3,0.7,0.6,1.6,0.5,2.5c0,0.9-0.3,1.8-0.7,2.5c-0.2,0.4-0.3,0.6-0.8,1.1
						c-0.4,0.4-0.9,0.6-1.3,0.8c-1.7,0.7-3.1,0.6-4.5,0.6c-1.4,0-2.7-0.2-4-0.3c-2.6-0.3-5.2-0.7-7.7-1c-1.2-0.1-2.5-0.2-3.6-0.2
						c-1.1,0-2.3,0.1-3,0.4l0,0c0,0-0.4,0.1-0.5,0.2c-0.1,0.1-0.2,0.1-0.4,0.1c-0.3,0.1-0.6,0.3-0.9,0.5c-0.6,0.4-1.2,0.9-1.8,1.4
						c-1.2,1.1-2.2,2.5-3,4c-0.8,1.5-1.5,3.1-1.9,4.8c-0.4,1.7-0.6,3.4-0.4,5.1l0,0c0.1,0.2,0,0.5-0.2,0.7c-0.1,0-0.2,0.1-0.3,0.1
						l-0.3,0c-0.9,0-1.8-0.1-2.7,0c-0.9,0-1.8,0.1-2.7,0.2c-1.8,0.2-3.5,0.5-5.2,0.9c-0.8,0.2-1.6,0.4-2.4,0.7l-1.1,0.4
						c-0.4,0.2-0.7,0.3-1.1,0.5c-0.3,0.2-0.7,0.4-1,0.6l-0.2,0.1l0,0l0,0l0,0c0,0-0.1,0.1,0.1-0.1l-0.1,0.1l-0.1,0.1
						c-0.2,0.2-0.3,0.2-0.3,0.3c-0.4,0.4-0.8,1-1.1,1.6c-0.7,1.3-1.1,2.9-1.2,4.5c-0.2,1.6,0,3.3,0.2,5c0.2,0.8,0.3,1.7,0.6,2.5
						c0.3,0.8,0.6,1.7,0.9,2.5c0.7,1.7,1.5,3.3,2.5,4.9l0,0c0.1,0.1,0,0.3-0.1,0.4c-0.1,0.1-0.2,0.1-0.3,0c-0.8-0.6-1.5-1.2-2.2-1.9
						c-0.7-0.7-1.3-1.5-1.9-2.2c-0.6-0.8-1.1-1.6-1.6-2.5c-0.5-0.9-0.9-1.8-1.2-2.8c-0.7-1.9-1.1-4-1.1-6c0-2.1,0.3-4.3,1.2-6.3
						c0.5-1,1.1-2,2-3c0.3-0.3,0.6-0.5,0.7-0.6l0.1-0.1l0.1-0.1l0.1-0.1l0,0l0,0l0.4-0.2c0.5-0.3,1-0.6,1.5-0.8c1-0.5,2-0.8,3-1.1
						c1-0.3,2-0.5,3-0.6c1-0.1,2-0.1,3-0.1c1,0,2,0.1,3,0.3c2,0.3,3.9,0.9,5.6,2l-0.8,0.7v0c-1-1.9-0.7-3.8-0.5-5.7
						c0.2-1.9,0.6-3.8,1.3-5.6c0.7-1.8,1.6-3.6,2.8-5.2c0.6-0.8,1.3-1.6,2.2-2.3c0.4-0.4,0.9-0.7,1.4-1c0.2-0.2,0.6-0.3,0.8-0.5
						c0.3-0.2,0.3-0.2,0.7-0.3l0,0c1.8-0.5,3.2-0.5,4.6-0.4c1.4,0.1,2.8,0.3,4.1,0.5c2.6,0.5,5.1,1,7.6,1.5c1.2,0.2,2.5,0.4,3.7,0.6
						c1.2,0.1,2.4,0.1,3.1-0.1c0.2-0.1,0.3-0.1,0.4-0.2c0,0.1,0.2-0.2,0.3-0.4c0.2-0.4,0.4-0.8,0.4-1.2c0.1-0.8-0.3-1.7-0.9-2.7
						c-0.6-1-1.5-1.9-2.3-3.1c-0.4-0.6-0.8-1.2-1.1-2c-0.1-0.4-0.2-0.9-0.2-1.4c0-0.2,0.1-0.5,0.1-0.7c0.1-0.3,0.2-0.5,0.3-0.6
						c0.5-0.8,1.3-1.4,2.1-1.6c0.8-0.2,1.5-0.3,2.2-0.3c1.4,0,2.7,0.3,4,0.7c2.6,0.7,5,1.9,7.2,3.3c2.2,1.4,4.3,3.1,5.8,5.3
						c0.1,0.1,0.1,0.3-0.1,0.4C529.1,430.5,528.9,430.5,528.8,430.4z"/>
				</g>
				<g>
					<path class="st19" d="M508.9,517.2c0,0.4-0.2,0.9-0.3,1.3c-0.1,0.4-0.3,0.8-0.4,1.2c-0.3,0.8-0.6,1.6-1,2.4
						c-0.8,1.6-1.5,3.1-2.5,4.6l0,0l0,0c-0.2,0.3-0.5,0.4-0.8,0.4c-1,0.1-1.8-0.1-2.5-0.2c-0.7-0.2-1.4-0.4-2.1-0.6
						c-0.7-0.2-1.3-0.4-1.9-0.6c-0.6-0.2-1.3-0.3-1.7-0.4h0l0.8-0.4c-0.6,1-1.3,2.3-1.9,3.5c-0.6,1.2-1.3,2.4-2,3.6
						c-1.3,2.4-2.8,4.7-4.2,7c-1.5,2.3-3.1,4.6-4.7,6.8c-0.9,1.1-1.7,2.2-2.7,3.2c-0.3,0.3-0.5,0.5-0.8,0.8
						c-0.1,0.1-0.3,0.2-0.4,0.4l-0.2,0.2l-0.1,0.1l-0.2,0.2l-0.1,0l0,0l-0.1,0c-0.1,0.1-0.3,0.1-0.3,0.1c-0.2,0-0.3,0-0.4,0
						c-0.2,0-0.4,0-0.6,0c-0.4-0.1-0.7-0.1-1.1-0.2c-1.4-0.4-2.7-0.8-4-1.3c-1.3-0.5-2.6-1-3.8-1.6c-2.5-1.1-5-2.2-7.5-3.5
						c-2.5-1.2-4.9-2.5-7.3-3.8c-2.4-1.4-4.7-2.8-6.9-4.4c-0.1-0.1-0.2-0.3-0.1-0.4c0.1-0.1,0.3-0.2,0.4-0.1l0,0
						c2.2,1.6,4.6,2.9,7,4.1c2.4,1.3,4.9,2.4,7.3,3.6c2.5,1.1,5,2.2,7.5,3.2c1.3,0.5,2.5,1,3.8,1.4c1.3,0.4,2.6,0.9,3.8,1.1
						c0.3,0.1,0.6,0.1,0.9,0.2c0.3,0.1,0.6,0,0.4,0c0,0,0.1-0.1-0.1,0.1l0,0l0,0l0,0l0.1-0.1l0.2-0.2c0.1-0.1,0.2-0.2,0.3-0.4
						c0.2-0.2,0.4-0.5,0.6-0.8c0.8-1.1,1.5-2.2,2.2-3.3c0.7-1.1,1.4-2.3,2.1-3.5l2.1-3.5c1.4-2.3,2.8-4.7,4.2-7
						c0.7-1.2,1.5-2.3,2.3-3.4c0.8-1.1,1.6-2.2,2.7-3.3l0.1-0.1c0.2-0.2,0.4-0.2,0.6-0.2l0,0c0.9,0,1.6,0.1,2.3,0.3
						c0.7,0.2,1.4,0.4,2.1,0.6c0.7,0.2,1.3,0.4,1.9,0.5c0.3,0.1,0.6,0.1,0.9,0.2c0.1,0,0.3,0,0.4,0c0.1,0,0.2,0,0.3,0l-0.8,0.5v0
						c1-1.2,2-2.6,3-4l1.4-2.1c0.2-0.4,0.4-0.7,0.7-1.1c0.2-0.4,0.4-0.7,0.6-1.1c0.1-0.2,0.2-0.2,0.4-0.2
						C508.9,517,508.9,517.1,508.9,517.2L508.9,517.2z"/>
				</g>
				<g>
					<path class="st20" d="M509.5,514c-1.3,0-2.6-0.1-3.9-0.3c-1.3-0.1-2.5-0.5-3.8-0.7c-1.3-0.3-2.5-0.6-3.7-0.9
						c-1.2-0.3-2.5-0.7-3.7-1.1c-1.2-0.4-2.4-0.8-3.6-1.2c-1.2-0.4-2.4-0.9-3.6-1.4c-2.4-0.9-4.7-2-7-3.1c-2.3-1.1-4.6-2.3-6.8-3.5
						c-1.1-0.6-2.2-1.3-3.3-2c-1.1-0.7-2.2-1.4-3.2-2.1c-2.1-1.5-4.2-3.1-6.1-4.8c-0.5-0.4-0.9-0.9-1.4-1.4
						c-0.5-0.5-0.9-0.9-1.3-1.5c-0.9-1-1.6-2.1-2.3-3.2l1.4,0l0,0l-1.7,3.1c-0.6,1-1.2,2.1-1.7,3.1l-1.8,3.1c-0.3,0.5-0.6,1-0.9,1.5
						c-0.3,0.5-0.6,1-0.8,1.5l0-0.6l0,0c0.1,0.1,0.2,0.2,0.3,0.3c0.1,0.1,0.2,0.2,0.3,0.3c0.2,0.2,0.5,0.4,0.7,0.6l1.6,1.2
						c0.6,0.4,1.1,0.8,1.7,1.3c0.5,0.5,1.1,1,1.5,1.8l0.1,0.2c0.1,0.2,0.1,0.5,0,0.7l0,0c-0.1,0.8-0.3,1.4-0.5,2
						c-0.2,0.6-0.4,1.3-0.7,1.9c-0.5,1.2-1,2.4-1.5,3.6c-0.6,1.2-1.1,2.3-1.7,3.5c-0.6,1.1-1.2,2.3-1.7,3.4
						c-1.2,2.3-2.3,4.5-3.4,6.8c-0.5,1.1-1.1,2.3-1.5,3.4c-0.2,0.6-0.4,1.2-0.6,1.8c-0.1,0.6-0.3,1.2-0.2,1.7l0,0
						c0,0.2-0.1,0.3-0.2,0.3c-0.1,0-0.3,0-0.3-0.1c-0.4-0.7-0.4-1.4-0.4-2.1c0-0.7,0.1-1.4,0.2-2c0.2-1.3,0.6-2.6,0.9-3.9
						c0.8-2.5,1.7-4.9,2.8-7.3c0.5-1.2,1-2.4,1.6-3.5c0.5-1.2,1.1-2.3,1.7-3.5c0.6-1.1,1.2-2.3,1.8-3.4l0.9-1.7
						c0.3-0.5,0.6-1.1,0.8-1.6l0,0l0.1,0.8c-0.2-0.2-0.4-0.4-0.6-0.6c-0.2-0.2-0.5-0.4-0.7-0.6c-0.5-0.4-1-0.8-1.6-1.3
						c-0.5-0.5-1.1-0.9-1.6-1.5c-0.5-0.5-1-1.1-1.3-2l0,0c-0.1-0.1-0.1-0.3-0.1-0.4l0-0.2c0.1-0.6,0.4-1.2,0.6-1.8
						c0.2-0.6,0.5-1.1,0.7-1.7c0.5-1.1,1-2.2,1.6-3.3c0.6-1.1,1.2-2.1,1.9-3.1c0.7-1,1.3-2,2.2-3l0,0c0.2-0.4,0.7-0.5,1-0.3
						c0.1,0,0.1,0.1,0.2,0.1l0.1,0.2c0.8,0.9,1.7,1.8,2.6,2.5c0.9,0.8,1.9,1.6,2.9,2.3c1,0.7,2,1.4,3,2.1c1,0.7,2.1,1.4,3.1,2
						c1.1,0.6,2.1,1.3,3.2,1.9l3.3,1.8c1.1,0.6,2.2,1.2,3.3,1.8l3.3,1.7c1.1,0.6,2.2,1.1,3.4,1.7l3.4,1.6c2.3,1.1,4.6,2.1,6.8,3.1
						l3.5,1.4c1.2,0.5,2.3,0.9,3.5,1.4c1.2,0.4,2.4,0.8,3.5,1.2c0.6,0.2,1.2,0.3,1.8,0.5l0.9,0.2l0.9,0.2c0.2,0,0.3,0.3,0.2,0.4
						C509.8,513.8,509.7,514,509.5,514L509.5,514z"/>
				</g>
			</g>
			<g id="dots">
				<path class="st21" d="M323.3,506.2c0,3.1-2.5,5.6-5.6,5.6c-3.1,0-5.6-2.5-5.6-5.6c0-3.1,2.5-5.6,5.6-5.6
					C320.8,500.6,323.3,503.1,323.3,506.2z"/>
				<path class="st21" d="M368.2,547.1c0,2.5-2,4.6-4.6,4.6c-2.5,0-4.6-2-4.6-4.6s2-4.6,4.6-4.6
					C366.1,542.6,368.2,544.6,368.2,547.1z"/>
				<circle class="st21" cx="387.9" cy="560.7" r="3.6"/>
				<path class="st21" d="M666.5,529.2c2,0,3.6,1.6,3.6,3.6s-1.6,3.6-3.6,3.6c-2,0-3.6-1.6-3.6-3.6S664.5,529.2,666.5,529.2z"/>
				<circle class="st21" cx="557" cy="549.2" r="4.6"/>
				<path class="st21" d="M452.5,431.5c0,2.7-2.2,4.9-4.9,4.9c-2.7,0-4.9-2.2-4.9-4.9c0-2.7,2.2-4.9,4.9-4.9
					C450.2,426.6,452.5,428.8,452.5,431.5z"/>
				<path class="st21" d="M418.8,417.9c0,2.1-1.7,3.8-3.8,3.8c-2.1,0-3.8-1.7-3.8-3.8c0-2.1,1.7-3.8,3.8-3.8
					C417.1,414.1,418.8,415.9,418.8,417.9z"/>
				<path class="st21" d="M586.3,452.7c0,2.5-2,4.6-4.6,4.6c-2.5,0-4.6-2-4.6-4.6c0-2.5,2-4.6,4.6-4.6
					C584.2,448.1,586.3,450.1,586.3,452.7z"/>
			</g>
			<path class="st22" d="M621.7,516.2c0.7-0.4,1.8-1.5,3-1.7c0.4-0.4,1-0.7,1.3-1.1c0.2,0,0.4,0,0.6,0c2.5-1.7,5.9-3.7,10.1-2.9
				c1.3,1.8,0.1,3.8-0.4,5.6c-1.7,1.3-2.3,3.6-3.7,5.2c-0.3,0.3-0.8,0.5-1.1,0.9c-1.1,1.2-2.4,2.3-3.7,3.5c4.5-0.2,8.5,0.6,12.5,1.5
				c1.1,1.2,3.5,1.1,3.5,3.1c0,1.2-1.2,1.9-2.2,2.4c-1,0.4-2.2,1.2-3.4,1.5c-3.4,0.7-7.3,0.1-10,0.4c4.3,3.2,8.9,6.2,10.1,12.1
				c-0.5,0.7-0.8,1.5-1.6,1.9c-2.4,0.3-4.8-0.4-7.1-0.9c-2.1-1.5-4.7-2.7-6.9-4.2c0.7,2.7,1.2,5.6,1.5,9.3c0.3,3.3,0.3,8.1-3.6,7.2
				c-0.8-0.2-2.7-1.7-3.3-2.4c-0.6-0.7-1.1-1.9-1.7-2.9c-1.3-2.2-2.6-5.4-3.6-7.9c-0.7,0.9-1,1.6-1.2,3c-0.9,1.1-1.1,2.1-1.6,3.6
				c-1.5,1.8-2.3,4.4-4.3,5.7c-0.1,0.4-0.4,0.6-0.5,1c-0.6,0-0.7,0.6-1.2,0.8c-1.2,0.1-1.9-0.2-2.6-0.7c-1.2-2.5-0.7-8.9-0.2-11.8
				c0.4-2.1,0.8-3.7,1.4-5.2c-1.4,0-2.8,1-3.6,2c-1.4,0.2-2.3,1.3-3.5,1.8c-0.6,0.2-1.3-0.1-1.7,0.6c-2.6,0.2-5.1,1.9-7.2,0.3
				c-0.3-1.3,0.2-2,0.2-3.3c2.2-3.4,4.7-6.6,8.4-8.5c-2.3-0.5-4.9-0.3-7.4-0.9c-2.7-0.6-5.1-1.8-6.5-3.5c0.1-1.2,0.9-1.6,1.2-2.5
				c2.2-1.4,5.3-2.2,8.7-2.6c1.2-0.2,2.7,0.3,3.8-0.3c-0.8-0.8-1.3-1.9-2.4-2.4c0-0.7-0.6-0.9-0.8-1.5c-0.7-0.1-0.9-1.1-1.6-1.7
				c-0.5-0.5-1.3-1-1.8-1.7c-0.4-0.6-0.9-1.4-1.4-2.1c-1.1-1.8-1.6-4.1,0.6-5.1c1.4,0,2.6,0.3,3.9,0.3c2.9,1.6,6.9,2.1,8.3,5.2
				c0.9,0.2,1,1.1,1.8,1.5c-0.7-1.9-1.9-5.8-2.2-9.7c-0.3-3-0.4-7.1,2.7-7.8c3,1.1,4.6,4,6,6.7c0.2,0.4,0.6,0.7,0.9,1.1
				c0.2,0.3,0.3,0.9,0.6,1.3c0.2,0.4,0.8,0.7,0.9,1c0.1,0.2-0.2,0.4-0.1,0.4c0.5,0.8,1.4,1.5,1.7,2.7c1.5-5,2.8-10.2,5.8-13.7
				c1-0.6,1.9-1.3,3.3-0.7c2.3,1,1.8,7.6,1.7,11.6C622.1,513.5,621.5,515.1,621.7,516.2z"/>
			<path class="st23" d="M342.4,503.9c1.5,1.6,2.7,0.7,4.4,0.4c0.7-0.1,1.5,0,2.1-0.1c1.4-0.3,2.8-1.3,4.4-1.7
				c2.8-0.7,5.7-0.8,8-1.8c1.1,0.7,2,1.7,2.8,2.7c0.7,1,1.3,2.4,2.4,3.6c0.2,0.3,0.6,0.5,0.9,0.8c2,2.1,3,5.4,5.9,6.8
				c0.9-0.1,1.4-0.8,2.1-1.6c-0.1-1.1,0-2.3,0-3.4c-0.1-2.4-1.4-4.8-0.9-7.2c-0.9-2.5-1.3-5.1-1.1-7.7c1.6,0.1,3.6-1.1,5.5-1.3
				c2-0.3,4.2-0.4,6.5-0.9c2.5-0.6,6.5-1.8,5.5-4.7c-1.7-0.8-3.2-1.7-5.1-2.3c-0.6-0.2-1.4-0.1-2.1-0.4c-1.2-0.5-2.1-1-3.4-1.4
				c-0.3-0.1-0.7-0.1-1-0.3c-1.1-0.4-3.7-0.5-4.4-1.2c-0.4-0.4-0.6-4.7-0.6-5.5c0-1.4,0.1-2.7,0.5-4.2c-0.2-1.4-0.4-2.9-0.4-4.5
				c-0.1-2.7,0.4-5.4-3.1-4.5c-2.7,4.1-5.8,11.6-8,15.4c-1.3,0.9-2.7-0.8-4-0.5c-4.4-2.2-9.2-2.7-13.3-4.6c-0.9,0.4-2.4-0.6-3.2,0.2
				c-0.6,0.5-0.3,1.3-0.4,2.1c2,3.2,4.9,6.1,7.8,9.3c0.6,0.7,1.3,1.1,1.8,1.9c0.5,0.8,1.2,2.2,2.4,3.1c-0.3,0.8-1.3,1.6-1.9,1.9
				c-0.3,0.7-0.8,0.9-1.4,1.4c-2,2-3.9,4.7-5.7,5.6c-0.4,1.1-1.5,2.3-2.7,3.5C342.4,503.1,342.2,503.5,342.4,503.9z"/>
		</g>
	</g>
</g>
<g id="dome">
</g>
<g id="poo">
</g>
<g id="FIns_02">
</g>
<g id="gull_02">
</g>
<g id="submarine">
</g>
<g id="kraken-giggling">
</g>
</svg>
