<?xml version="1.0" encoding="utf-8"?>
<!-- Generator: Adobe Illustrator 19.1.0, SVG Export Plug-In . SVG Version: 6.00 Build 0)  -->
<!DOCTYPE svg PUBLIC "-//W3C//DTD SVG 1.1//EN" "http://www.w3.org/Graphics/SVG/1.1/DTD/svg11.dtd">
<svg version="1.1" xmlns="http://www.w3.org/2000/svg" xmlns:xlink="http://www.w3.org/1999/xlink" x="0px" y="0px"
	 viewBox="0 0 960 700" style="enable-background:new 0 0 960 700;" xml:space="preserve">
<style type="text/css">
	.st0{fill:#A4D4CF;}
	.st1{fill-rule:evenodd;clip-rule:evenodd;fill:#CC9873;}
	.st2{fill:#8C6239;}
	.st3{fill:#FFF45F;}
	.st4{fill:#985752;}
	.st5{fill:#FED9F0;}
	.st6{fill:#FC69C3;}
	.st7{fill:#FFC85A;}
	.st8{fill:#CC9873;}
	.st9{fill:#E3F2EB;}
	.st10{fill:#29ABE2;}
	.st11{fill:#E0128D;}
	.st12{fill:#BD77B2;}
	.st13{fill:#801D7F;}
	.st14{fill-rule:evenodd;clip-rule:evenodd;fill:#E3F2EB;}
	.st15{fill:#488C88;}
	.st16{fill:#5E1960;}
	.st17{fill:#A0BCB8;}
	.st18{fill:#327F76;}
	.st19{fill:#5CA099;}
	.st20{fill:#236B67;}
	.st21{fill-rule:evenodd;clip-rule:evenodd;fill:#236B67;}
	.st22{fill-rule:evenodd;clip-rule:evenodd;fill:#72BF44;}
	.st23{fill:#AEA518;}
	.st24{fill-rule:evenodd;clip-rule:evenodd;fill:#CCE1E6;}
	.st25{fill-rule:evenodd;clip-rule:evenodd;fill:#FFFFFF;}
	.st26{fill-rule:evenodd;clip-rule:evenodd;fill:#73BE44;}
	.st27{fill-rule:evenodd;clip-rule:evenodd;fill:#482E1F;}
	.st28{fill:#FFFFFF;}
	.st29{fill-rule:evenodd;clip-rule:evenodd;fill:#C9AD01;}
	.st30{fill:#C9AD01;}
	.st31{fill-rule:evenodd;clip-rule:evenodd;fill:#00A59B;}
	.st32{fill:#404041;}
	.st33{fill:#FFEB00;}
	.st34{fill:#FC7A38;}
	.st35{fill:#B1B4B6;}
	.st36{fill:#918A11;}
	.st37{fill-rule:evenodd;clip-rule:evenodd;fill:#918A11;}
	.st38{fill-rule:evenodd;clip-rule:evenodd;fill:#D94A35;}
	.st39{fill-rule:evenodd;clip-rule:evenodd;fill:#F15A24;}
	.st40{fill-rule:evenodd;clip-rule:evenodd;fill:#F9744B;}
	.st41{fill:#F9744B;}
	.st42{fill:#D94A35;}
	.st43{fill-rule:evenodd;clip-rule:evenodd;fill:#E1F4FD;}
	.st44{fill-rule:evenodd;clip-rule:evenodd;fill:#F06992;}
</style>
<g id="background">
	<rect x="0" class="st0" width="960" height="700"/>
</g>
<g id="ice_cream_octopus">
</g>
<g id="dome">
</g>
<g id="poo">
</g>
<g id="FIns_02">
</g>
<g id="gull_02">
</g>
<g id="submarine">
</g>
<g id="kraken-giggling">
	<g>
		<path id="head_top_1_" class="st38" d="M445.8,172.1c-6.4-3.3-28.6-7.9-29.4-14.5c-0.7-6.6,22.2-81.2,59.4-80.6
			c37.2,0.7,61.6,75.3,60.9,79.2c-0.7,4-23.6,13.2-32.2,15.2L445.8,172.1z"/>
		<path id="body_2_" class="st39" d="M733.7,483.5c0-17.6,11.5-63.4-26.9-60.4c-34.1,2.6-23.3,42.3-53.7,56.5
			c-21.6,10.1-50.1,5.3-65.2-19.2c20.4,5.3,60.5,8.3,86.7-30.7c23.5-35,4.3-57.1-11.1-70.7c-16.4-14.4-52.7-19.7-57.6-42.3
			c-4.9-22.2-1-54.9,31.5-71.3c22.2-11.2,65.6,4.9,66.2,33c0.7,32.4-10.4,37.3-18.3,40.9c-5.1,2.4-18.6,4.3-15.8-1
			c1.8-3.3,6.9-9.2,5-14.5c-1.9-5.3-11.9-8.8-10.4-16.5c2.3-11.5,19.7-15.3,14-21.5c-4.7-5-54.4-9.9-53.7,38.3
			c0.4,24.5,32.6,44.2,70.2,32.4c32.6-10.2,40.7-56.1,29.2-78.1c-11.5-22-64-56.9-109.1-23.9c-35.6,26.1-41.4,78.2-27.2,104.7
			c16.5,30.7,69.8,28.4,68.7,66.4c-0.8,29.2-55.1,38.3-69,20.1c-8.7-11.5-39.9-97.9-41.3-104.8c-6.5-27-21.9-96-25.1-110.4
			c-5.3-23.3-32.2-118.2-35.8-128.8c-3.2-9.4-10.4-9.6-14.3-0.7c-4.3,9.9-30.1,99.1-35.8,118.9c-6.8,23.3-12.7,58.5-18.5,93.5
			c-1.6,8.2-4.7,18.1-6.8,25.8c-2.4,8.8-22.8,92.6-29.6,101.3c-7.6,9.7-42.2,23.9-63,3.5c-16.2-15.8-16-34.7,5.7-45.8
			c19.1-9.7,43.9-21.7,46.8-41.4c2.9-19.4,0.1-36.9-16.2-59.9c-18.1-25.5-68.5-55.7-114.6-22c-27.7,20.3-20.3,57.5-4.8,73.1
			c22.9,22.9,66.3,27.8,84,7c10.5-12.3,8.5-27.2,0-41.4c-10.5-17.5-44.2-20.9-52.4-11.9c-3.6,4,16.1,11.9,17.5,18.8
			c1.6,8-5.8,9.1-7.5,14.5c-1.8,5.6,10,13,5.4,15.5c-7.9,2.4-47.3-10.9-36.9-45.6c6.1-20.4,28.3-25.2,45.5-25.4
			c30.1-0.3,75.1,45.8,52.3,75.3c-14.3,18.5-60.2,24.8-65.2,51.2c-4.3,22.8,7.6,47.9,32.2,64.4c26.1,17.5,51.6,10.7,64.5,10.5
			c-4.3,9.7-26.6,33.7-62.3,18.9c-31.9-13.2-19-43.3-48.7-55.5c-15.5-6.4-34.3,6.6-36.2,17.2c-1.9,10.6,5.4,36.6-0.7,48.2
			c-5.9,11.2-24,8.1-29.7,10.8c-5.7,2.6,16.6,16.6,40.1-1.5c17.5-13.5,1-41.4,15.4-51.8c21.5-15.5,13.8,36.3,51.4,50.7
			c31.3,12,56.8,8.3,80-10.8c-4.7,9.2-19,33.4-46.9,40c-28.9,6.8-33.8-4.4-37.8-10.7c-9.1-14.1-24.2-31.8-39.5-20.4
			c-15.3,11.4-5.4,32.7-11.1,45.9s-17.5,8.6-24,15.2c-5.7,5.9,21.1,6.8,31.9-2c21.8-17.8,7-36.4,17.2-41.3c7-3.3,17.5,34.9,55.1,36
			c58.4,1.7,77.7-46.9,84.9-61.7c3.2,4.3,18.3,58.8-1.8,71.3c-15.9,10-40.2,8.7-55.5-1.3c-18.6-12.2-51-0.3-49.1,18.2
			c1.9,18.5,9.4,23.7,6.4,41.9c-2.9,17.5-26.1,13.9-20.1,18.5c8.9,6.8,29,0.8,35.8-13.2c8.2-16.8-10.6-38.2-2.5-46.6
			c12.2-12.5,24,19.1,64.8,14.3c63-7.4,61.2-74.4,59.4-90.6c13.6,4.6,43.7,5,60.9,0c1.8,14.5-0.7,68.7,37.6,85.2
			c50.5,21.8,72.2-21,87.7-9.2c7.9,5.9-11.3,38.3,1.1,51.5c12.4,13.2,27.7,13.7,33.3,7.9c6.1-6.3-10.1,1.4-19.7-15.2
			c-9-15.6,16.4-44.1-3.5-60.4c-27-22.1-46,15.8-85.9,2.6c-27-8.9-25.2-42.9-11.2-74.6c6.8,18.8,22.9,42.7,40.1,51.5
			c17.2,8.8,45.8,12.2,62.3,7.3c19.7-5.9,26.4-35,37.2-34c7,0.7-1.8,19.1,13.8,37.5c9.9,11.7,24.3,16.8,36.3,9.7
			c9-5.3-8.3-3.4-17.9-10.2c-19.3-13.9-1.8-44.2-16.5-53.2c-11.5-7-22.2-6.3-31.5,6.3c-10.5,14.1-15.5,29.8-48.3,23.4
			c-26.5-5.1-45.1-30.4-45.8-40.9c8.6,10.9,31.4,21.1,55.9,18.8c21.1-2,35-11.3,46-22.6c12.1-12.4,8-35.8,22.1-37.2
			c22.9-2.3,2.2,37.2,22.6,54.5c16.2,13.8,32.6,11.6,38.3,2.3C768.1,496.3,733.7,501.1,733.7,483.5z"/>
		<g id="spots_1_">
			<path class="st40" d="M457.5,214.4c0-12.8-11.2-18.4-20.6-21c-1.9,6.1-8.6,29.6-10,41C439.6,235.4,457.5,228.7,457.5,214.4z"/>
			<path class="st40" d="M531.7,258.3c-0.7-7.1-5.7-30-7.3-32.5c-6.4,3.5-14,8.8-11.6,20.7C515.2,258,523.5,259.5,531.7,258.3z"/>
			<path class="st41" d="M485.2,178.3c10.9,0,11.5,6.6,11,14.5c-0.5,8.1-3.8,10.6-11.5,10.6c-8.6,0-8.9-11.1-8.1-14.5
				C477.5,184.9,479.4,178.3,485.2,178.3z"/>
			<path class="st41" d="M452.2,254c0-4.8,3-10.6,8.1-10.6c3.8,0,7.2,4.4,8.1,10.6c0.6,3.9-3.3,8.8-7.6,8.8
				C456.5,262.8,452.2,258,452.2,254z"/>
		</g>
		<g id="eye_3_">
			<path id="eye_white_2_" class="st42" d="M567.9,308c0,16.7-14.7,30.2-32.8,30.2s-32.8-13.5-32.8-30.2c0-16.7,14.7-30.3,32.8-30.3
				S567.9,291.3,567.9,308z"/>
			<path class="st41" d="M565.6,314.6c-9.1-7-21-8.8-32.2-8.4c-5.9,0.2-11.8,1.1-17.5,2.6c-0.9,0.2-12.8,5.4-12.4,5.8
				c-2.3-2.2,10.5-8.9,11.7-9.3c6.7-2.6,14.1-4,21.2-3.9c6.6,0.1,13.4,1.2,19.4,4.2c2.5,1.2,4.9,2.8,6.9,4.7
				c0.9,0.8,1.7,1.6,2.4,2.5C565.2,312.7,566.8,315.5,565.6,314.6z"/>
		</g>
		<g id="eye_2_">
			<path id="eye_white_1_" class="st42" d="M386.1,308c0,16.7,14.7,30.2,32.8,30.2c18.1,0,32.8-13.5,32.8-30.2
				c0-16.7-14.7-30.3-32.8-30.3C400.8,277.7,386.1,291.3,386.1,308z"/>
			<path class="st41" d="M387,312.2c7.4-9,20.6-11.8,31.7-11.8c6.7,0.1,13.5,1.1,19.6,3.8c2.6,1.2,5,2.7,7.1,4.6
				c0.5,0.5,4.9,5.2,3.6,5.8c-0.7,0.3-2.8-2.3-3.3-2.7c-2.5-1.9-5.4-3.2-8.4-4.1c-6-1.9-12.5-2.6-18.7-2.5c-6.3,0-12.7,0.6-18.8,2.3
				c-2.7,0.7-5.4,1.7-8,2.9c-1,0.5-1.9,1-2.8,1.5C389,312,386,313.4,387,312.2z"/>
		</g>
		<g id="mouth_4_">
			<path class="st27" d="M414.3,363.6c-0.6-4.1-2.1-7.9,6.4-8.6c29.4-2.3,83.9-4.5,113.1-1.3c10.3,1.1,10,3.1,9.3,7.3
				c-6.4,40.3-32.9,61.4-62.3,61.4C455.8,422.4,421.4,410.5,414.3,363.6z"/>
			<path class="st43" d="M537.3,354.1c-6.7-1.2-20.5-2-28.8-1.9c-2.8,11.6-5.2,29.5,6.7,31.1C525,384.8,534.1,369.3,537.3,354.1z"/>
			<path class="st43" d="M489.4,352.2c-8.6-0.2-17.9-0.2-26.6,0.4c-0.4,9.1-0.8,27.9,13.8,30.2C487.8,384.5,489.2,361.5,489.4,352.2
				z"/>
			<path class="st43" d="M437.6,383.8c11.2-3.8,10.3-20.5,9.6-30.3c-9.2,0.1-19.3,0.7-25.3,1.5C422.4,363.1,426.4,387.5,437.6,383.8
				z"/>
			<path class="st44" d="M471.8,394.4c-9.5,0-20.5,3-14.3,11.4c4.8,6.6,13.6,3.2,18.6,5.7c3.5,1.8,4.7,6.1,4.9,10.8
				c3.1,0.2,12-0.5,14.8-1.9C498.5,408.7,491.6,394.4,471.8,394.4z"/>
		</g>
	</g>
</g>
</svg>
